<svg width="34" height="34" viewBox="0 0 34 34" fill="none" xmlns="http://www.w3.org/2000/svg">
<path d="M29.8492 23.8425L26.9167 20.8391C26.2859 20.2395 25.4902 19.8423 24.6319 19.6984C23.7736 19.5545 22.8918 19.6705 22.1 20.0316L20.825 18.7566C22.3275 16.7491 23.0136 14.2469 22.7454 11.7538C22.4771 9.26072 21.2743 6.9618 19.3792 5.31984C17.4841 3.67789 15.0373 2.81483 12.5314 2.90441C10.0255 2.99398 7.64653 4.02953 5.87346 5.8026C4.10039 7.57567 3.06484 9.9546 2.97527 12.4605C2.8857 14.9664 3.74875 17.4132 5.39071 19.3083C7.03266 21.2035 9.33158 22.4062 11.8247 22.6745C14.3178 22.9428 16.82 22.2566 18.8275 20.7541L20.0883 22.015C19.6847 22.8078 19.5401 23.7073 19.6748 24.5867C19.8095 25.4661 20.2167 26.281 20.8392 26.9166L23.8425 29.92C24.6394 30.7159 25.7196 31.1629 26.8458 31.1629C27.9721 31.1629 29.0523 30.7159 29.8492 29.92C30.254 29.5242 30.5756 29.0515 30.7952 28.5296C31.0148 28.0078 31.1279 27.4474 31.1279 26.8812C31.1279 26.3151 31.0148 25.7546 30.7952 25.2328C30.5756 24.711 30.254 24.2383 29.8492 23.8425V23.8425ZM17.8358 17.8358C16.8445 18.8246 15.5823 19.4975 14.2088 19.7693C12.8353 20.0412 11.412 19.8999 10.1187 19.3632C8.82543 18.8266 7.72022 17.9187 6.94268 16.7542C6.16515 15.5898 5.75017 14.221 5.75017 12.8208C5.75017 11.4206 6.16515 10.0518 6.94268 8.88738C7.72022 7.72292 8.82543 6.81503 10.1187 6.27838C11.412 5.74173 12.8353 5.60041 14.2088 5.87228C15.5823 6.14414 16.8445 6.81698 17.8358 7.80581C18.4955 8.46379 19.0188 9.24545 19.3759 10.106C19.733 10.9666 19.9168 11.8891 19.9168 12.8208C19.9168 13.7525 19.733 14.6751 19.3759 15.5356C19.0188 16.3962 18.4955 17.1778 17.8358 17.8358V17.8358ZM27.8517 27.8516C27.72 27.9844 27.5633 28.0898 27.3907 28.1617C27.218 28.2337 27.0329 28.2707 26.8458 28.2707C26.6588 28.2707 26.4737 28.2337 26.301 28.1617C26.1284 28.0898 25.9717 27.9844 25.84 27.8516L22.8367 24.8483C22.7039 24.7166 22.5985 24.5599 22.5266 24.3873C22.4547 24.2147 22.4176 24.0295 22.4176 23.8425C22.4176 23.6555 22.4547 23.4703 22.5266 23.2977C22.5985 23.125 22.7039 22.9683 22.8367 22.8366C22.9684 22.7039 23.1251 22.5985 23.2977 22.5265C23.4703 22.4546 23.6555 22.4176 23.8425 22.4176C24.0295 22.4176 24.2147 22.4546 24.3873 22.5265C24.56 22.5985 24.7166 22.7039 24.8483 22.8366L27.8517 25.84C27.9845 25.9717 28.0898 26.1284 28.1618 26.301C28.2337 26.4736 28.2707 26.6588 28.2707 26.8458C28.2707 27.0328 28.2337 27.218 28.1618 27.3906C28.0898 27.5633 27.9845 27.7199 27.8517 27.8516V27.8516Z" fill="white"/>
</svg>
