<svg width="31" height="31" viewBox="0 0 31 31" fill="none" xmlns="http://www.w3.org/2000/svg">
<path d="M8.48756 18.7529C8.29056 18.7529 8.09548 18.7917 7.91347 18.867C7.73146 18.9424 7.56608 19.0529 7.42678 19.1922C7.28748 19.3315 7.177 19.4969 7.10163 19.6789C7.02627 19.8609 6.98751 20.056 6.98756 20.2529V22.9264C5.05413 20.7398 3.98711 17.9217 3.98756 15.0029C3.98728 14.5618 4.01369 14.1211 4.06665 13.6831C4.09094 13.4873 4.07634 13.2886 4.02369 13.0984C3.97104 12.9082 3.88137 12.7303 3.75984 12.5748C3.6383 12.4193 3.48727 12.2894 3.31542 12.1924C3.14356 12.0954 2.95426 12.0332 2.75835 12.0095C2.56243 11.9858 2.36377 12.001 2.17374 12.0542C1.98371 12.1074 1.80605 12.1976 1.65094 12.3196C1.49582 12.4416 1.36631 12.593 1.26982 12.7652C1.17333 12.9373 1.11175 13.1268 1.08863 13.3228C1.02068 13.8803 0.986929 14.4414 0.987557 15.0029C0.989596 18.5822 2.27599 22.0419 4.61286 24.7529H2.48756C2.08973 24.7529 1.7082 24.911 1.4269 25.1923C1.14559 25.4736 0.987557 25.8551 0.987557 26.2529C0.987557 26.6508 1.14559 27.0323 1.4269 27.3136C1.7082 27.5949 2.08973 27.7529 2.48756 27.7529H8.48756C8.72216 27.75 8.95265 27.691 9.15985 27.581C9.36705 27.4709 9.54496 27.313 9.67875 27.1202C9.69624 27.0972 9.71858 27.08 9.73487 27.0557C9.74486 27.0408 9.74513 27.0231 9.75446 27.0079C9.82595 26.8872 9.8795 26.7567 9.91346 26.6205C9.93566 26.544 9.95143 26.4658 9.9606 26.3867C9.96491 26.3403 9.9876 26.3004 9.9876 26.253V20.253C9.98766 20.056 9.9489 19.8609 9.87353 19.6789C9.79817 19.4969 9.68768 19.3315 9.54838 19.1922C9.40907 19.0529 9.24369 18.9424 9.06167 18.867C8.87965 18.7917 8.68456 18.7529 8.48756 18.7529V18.7529ZM10.7376 6.00295H8.06385C10.2506 4.06961 13.0687 3.00261 15.9876 3.00295C16.4285 3.00189 16.869 3.02831 17.3066 3.08206C17.5023 3.10582 17.7007 3.09081 17.8905 3.03789C18.0804 2.98497 18.2579 2.89518 18.413 2.77364C18.5682 2.65211 18.6979 2.5012 18.7947 2.32955C18.8915 2.1579 18.9535 1.96886 18.9773 1.77322C19.0011 1.57758 18.986 1.37918 18.9331 1.18935C18.8802 0.999511 18.7904 0.821957 18.6689 0.666822C18.5473 0.511687 18.3964 0.38201 18.2248 0.285194C18.0531 0.188379 17.8641 0.126321 17.6685 0.102564C17.1107 0.0352753 16.5494 0.002009 15.9876 0.00294906C12.4083 0.00489474 8.94868 1.2912 6.23756 3.62798V1.50295C6.23756 1.10512 6.07952 0.723593 5.79822 0.442289C5.51691 0.160984 5.13538 0.00294906 4.73756 0.00294906C4.33973 0.00294906 3.9582 0.160984 3.6769 0.442289C3.39559 0.723593 3.23756 1.10512 3.23756 1.50295V7.50295C3.24699 7.60209 3.26675 7.69998 3.29652 7.79501L3.29688 7.79684C3.33331 7.98142 3.40522 8.15718 3.50864 8.31434L3.52577 8.33969C3.62488 8.48385 3.74911 8.60901 3.89252 8.7092C3.90891 8.7212 3.91706 8.73959 3.93408 8.75104C3.95552 8.76523 3.97977 8.76973 4.00166 8.78272C4.08673 8.8339 4.17687 8.87612 4.27064 8.90872C4.39736 8.9528 4.52949 8.97947 4.6634 8.98799C4.68939 8.98937 4.71128 9.00299 4.73756 9.00299H10.7376C11.1354 9.00299 11.5169 8.84496 11.7982 8.56365C12.0795 8.28235 12.2376 7.90082 12.2376 7.50299C12.2376 7.10517 12.0795 6.72364 11.7982 6.44233C11.5169 6.16103 11.1354 6.00299 10.7376 6.00299V6.00295ZM28.6782 22.2091C28.6419 22.0244 28.5699 21.8486 28.4664 21.6914L28.4494 21.6663C28.3503 21.522 28.2259 21.3968 28.0824 21.2966C28.066 21.2847 28.058 21.2662 28.041 21.2548C28.0248 21.2441 28.0056 21.2438 27.9891 21.2337C27.7989 21.1279 27.5903 21.059 27.3745 21.0305C27.3271 21.026 27.2862 21.0029 27.2376 21.0029H21.2376C20.8397 21.0029 20.4582 21.1609 20.1769 21.4422C19.8956 21.7235 19.7376 22.105 19.7376 22.5029C19.7376 22.9007 19.8956 23.2822 20.1769 23.5635C20.4582 23.8448 20.8397 24.0029 21.2376 24.0029H23.9112C21.7245 25.9362 18.9063 27.0032 15.9876 27.0029C15.5466 27.0034 15.1061 26.9765 14.6685 26.9223C14.2734 26.8743 13.8754 26.9853 13.5621 27.2307C13.2488 27.4762 13.0458 27.836 12.9978 28.2311C12.9498 28.6263 13.0608 29.0242 13.3062 29.3375C13.5517 29.6509 13.9115 29.8538 14.3066 29.9018C14.8644 29.9691 15.4257 30.0028 15.9876 30.0029C19.5668 30.0009 23.0264 28.7146 25.7376 26.3779V28.5029C25.7376 28.9008 25.8956 29.2823 26.1769 29.5636C26.4582 29.8449 26.8397 30.0029 27.2376 30.0029C27.6354 30.0029 28.0169 29.8449 28.2982 29.5636C28.5795 29.2823 28.7376 28.9008 28.7376 28.5029V22.5029C28.7281 22.4038 28.7084 22.3059 28.6786 22.2109L28.6782 22.2091ZM29.4876 5.25295C29.8854 5.25295 30.2669 5.09491 30.5482 4.81361C30.8295 4.5323 30.9876 4.15077 30.9876 3.75295C30.9876 3.35512 30.8295 2.97359 30.5482 2.69229C30.2669 2.41098 29.8854 2.25295 29.4876 2.25295H23.4876C23.3899 2.26236 23.2935 2.28181 23.1998 2.311L23.1898 2.31301C23.0077 2.34945 22.8342 2.4205 22.6788 2.5223L22.6494 2.54216C22.5059 2.64113 22.3813 2.76497 22.2814 2.90783C22.2696 2.92403 22.2514 2.932 22.2402 2.94875C22.2295 2.96486 22.2292 2.98391 22.2191 3.00029C22.112 3.19168 22.0426 3.40179 22.0146 3.61928C22.0103 3.66562 21.9876 3.70553 21.9876 3.75295V9.75295C21.9876 10.1508 22.1456 10.5323 22.4269 10.8136C22.7082 11.0949 23.0897 11.2529 23.4876 11.2529C23.8854 11.2529 24.2669 11.0949 24.5482 10.8136C24.8295 10.5323 24.9876 10.1508 24.9876 9.75295V7.07863C26.9208 9.26558 27.9878 12.0839 27.9876 15.0029C27.9878 15.444 27.9614 15.8848 27.9084 16.3227C27.8609 16.7175 27.9719 17.1151 28.2172 17.4282C28.4624 17.7412 28.8218 17.9442 29.2166 17.9926C29.2774 17.9997 29.3385 18.0031 29.3997 18.0029C29.7659 18.0024 30.1193 17.8679 30.3932 17.6248C30.6671 17.3816 30.8426 17.0467 30.8865 16.6831C30.9544 16.1256 30.9882 15.5645 30.9876 15.0029C30.9855 11.4237 29.699 7.96399 27.3621 5.25295H29.4876Z" fill="white"/>
</svg>
