<svg width="36" height="36" viewBox="0 0 36 36" fill="none" xmlns="http://www.w3.org/2000/svg">
<path d="M28.5 10.5H27V9C27 7.80653 26.5259 6.66193 25.682 5.81802C24.8381 4.97411 23.6935 4.5 22.5 4.5H7.5C6.30653 4.5 5.16193 4.97411 4.31802 5.81802C3.47411 6.66193 3 7.80653 3 9V9V27C3 28.1935 3.47411 29.3381 4.31802 30.182C5.16193 31.0259 6.30653 31.5 7.5 31.5H28.5C29.6935 31.5 30.8381 31.0259 31.682 30.182C32.5259 29.3381 33 28.1935 33 27V15C33 13.8065 32.5259 12.6619 31.682 11.818C30.8381 10.9741 29.6935 10.5 28.5 10.5ZM7.5 7.5H22.5C22.8978 7.5 23.2794 7.65804 23.5607 7.93934C23.842 8.22064 24 8.60218 24 9V10.5H7.5C7.10218 10.5 6.72064 10.342 6.43934 10.0607C6.15804 9.77936 6 9.39782 6 9C6 8.60218 6.15804 8.22064 6.43934 7.93934C6.72064 7.65804 7.10218 7.5 7.5 7.5V7.5ZM30 22.5H28.5C28.1022 22.5 27.7206 22.342 27.4393 22.0607C27.158 21.7794 27 21.3978 27 21C27 20.6022 27.158 20.2206 27.4393 19.9393C27.7206 19.658 28.1022 19.5 28.5 19.5H30V22.5ZM30 16.5H28.5C27.3065 16.5 26.1619 16.9741 25.318 17.818C24.4741 18.6619 24 19.8065 24 21C24 22.1935 24.4741 23.3381 25.318 24.182C26.1619 25.0259 27.3065 25.5 28.5 25.5H30V27C30 27.3978 29.842 27.7794 29.5607 28.0607C29.2794 28.342 28.8978 28.5 28.5 28.5H7.5C7.10218 28.5 6.72064 28.342 6.43934 28.0607C6.15804 27.7794 6 27.3978 6 27V13.245C6.4819 13.4145 6.98915 13.5008 7.5 13.5H28.5C28.8978 13.5 29.2794 13.658 29.5607 13.9393C29.842 14.2206 30 14.6022 30 15V16.5Z" fill="white"/>
</svg>
