<svg width="28" height="34" viewBox="0 0 28 34" fill="none" xmlns="http://www.w3.org/2000/svg">
<path d="M26.7166 3.08332C26.523 2.92669 26.2967 2.81544 26.0545 2.75776C25.8122 2.70007 25.5601 2.69742 25.3166 2.74999C23.5357 3.12322 21.6972 3.12798 19.9144 2.76396C18.1315 2.39994 16.442 1.67484 14.95 0.633319C14.671 0.439773 14.3395 0.33606 14 0.33606C13.6604 0.33606 13.329 0.439773 13.05 0.633319C11.5579 1.67484 9.86843 2.39994 8.08558 2.76396C6.30273 3.12798 4.46424 3.12322 2.6833 2.74999C2.43987 2.69742 2.18774 2.70007 1.94547 2.75776C1.7032 2.81544 1.47693 2.92669 1.2833 3.08332C1.08993 3.24018 0.93417 3.43838 0.827456 3.66334C0.720742 3.88831 0.665789 4.13433 0.666636 4.38332V16.8C0.665154 19.1896 1.23459 21.5449 2.32753 23.6699C3.42046 25.7949 5.00527 27.628 6.94997 29.0167L13.0333 33.35C13.3156 33.551 13.6535 33.659 14 33.659C14.3465 33.659 14.6844 33.551 14.9666 33.35L21.05 29.0167C22.9947 27.628 24.5795 25.7949 25.6724 23.6699C26.7653 21.5449 27.3348 19.1896 27.3333 16.8V4.38332C27.3342 4.13433 27.2792 3.88831 27.1725 3.66334C27.0658 3.43838 26.91 3.24018 26.7166 3.08332ZM24 16.8C24.0012 18.6579 23.5588 20.4893 22.7094 22.1417C21.86 23.7941 20.6282 25.2197 19.1166 26.3L14 29.95L8.8833 26.3C7.3717 25.2197 6.13994 23.7941 5.29055 22.1417C4.44116 20.4893 3.99869 18.6579 3.99997 16.8V6.29998C7.49402 6.59904 10.9934 5.78836 14 3.98332C17.0066 5.78836 20.5059 6.59904 24 6.29998V16.8ZM16.5666 12.9833L12.0833 17.4833L10.6 15.9833C10.2861 15.6695 9.86047 15.4932 9.41664 15.4932C8.9728 15.4932 8.54714 15.6695 8.2333 15.9833C7.91946 16.2972 7.74315 16.7228 7.74315 17.1667C7.74315 17.6105 7.91946 18.0361 8.2333 18.35L10.9 21.0167C11.0549 21.1729 11.2392 21.2969 11.4423 21.3815C11.6454 21.4661 11.8633 21.5096 12.0833 21.5096C12.3033 21.5096 12.5212 21.4661 12.7243 21.3815C12.9274 21.2969 13.1117 21.1729 13.2666 21.0167L19 15.3333C19.3138 15.0195 19.4901 14.5938 19.4901 14.15C19.4901 13.7061 19.3138 13.2805 19 12.9667C18.6861 12.6528 18.2605 12.4765 17.8166 12.4765C17.3728 12.4765 16.9471 12.6528 16.6333 12.9667L16.5666 12.9833Z" fill="white"/>
</svg>
