<svg width="19" height="15" viewBox="0 0 19 15" fill="none" xmlns="http://www.w3.org/2000/svg">
<path d="M3.45249 1.16199C3.13081 0.831241 2.69091 0.641829 2.22957 0.635422C1.76823 0.629014 1.32324 0.806137 0.992492 1.12782C0.661745 1.44951 0.472333 1.88941 0.465926 2.35075C0.459518 2.81208 0.63664 3.25707 0.958325 3.58782L4.95583 7.4999L0.958325 11.412C0.798206 11.5708 0.671115 11.7597 0.584385 11.9679C0.497655 12.1761 0.453003 12.3994 0.453003 12.6249C0.453003 12.8504 0.497655 13.0737 0.584385 13.2819C0.671115 13.4901 0.798206 13.679 0.958325 13.8378C1.11714 13.9979 1.30608 14.125 1.51426 14.2118C1.72243 14.2985 1.94572 14.3431 2.17124 14.3431C2.39676 14.3431 2.62005 14.2985 2.82823 14.2118C3.0364 14.125 3.22535 13.9979 3.38416 13.8378L8.50916 8.71282C8.66928 8.55401 8.79637 8.36507 8.8831 8.15689C8.96983 7.94871 9.01448 7.72542 9.01448 7.4999C9.01448 7.27438 8.96983 7.05109 8.8831 6.84292C8.79637 6.63474 8.66928 6.4458 8.50916 6.28699L3.45249 1.16199ZM17.9733 6.28699L12.8483 1.16199C12.5266 0.840302 12.0903 0.659581 11.6354 0.659581C11.1805 0.659581 10.7442 0.840302 10.4225 1.16199C10.1008 1.48367 9.92009 1.91997 9.92009 2.3749C9.92009 2.82984 10.1008 3.26614 10.4225 3.58782L14.3517 7.4999L10.4225 11.412C10.2624 11.5708 10.1353 11.7597 10.0486 11.9679C9.96182 12.1761 9.91717 12.3994 9.91717 12.6249C9.91717 12.8504 9.96182 13.0737 10.0486 13.2819C10.1353 13.4901 10.2624 13.679 10.4225 13.8378C10.5813 13.9979 10.7702 14.125 10.9784 14.2118C11.1866 14.2985 11.4099 14.3431 11.6354 14.3431C11.8609 14.3431 12.0842 14.2985 12.2924 14.2118C12.5006 14.125 12.6895 13.9979 12.8483 13.8378L17.9733 8.71282C18.138 8.55857 18.2705 8.37322 18.3631 8.16748C18.4558 7.96174 18.5067 7.73969 18.5131 7.51415C18.5195 7.2886 18.4811 7.06403 18.4001 6.8534C18.3192 6.64278 18.1974 6.45027 18.0417 6.28699H17.9733Z" fill="white"/>
</svg>
