<svg width="116" height="115" viewBox="0 0 116 115" fill="none" xmlns="http://www.w3.org/2000/svg">
<path d="M99 65C99 91.491 77.3046 113 50.5 113C23.6954 113 2 91.491 2 65C2 38.509 23.6954 17 50.5 17C77.3046 17 99 38.509 99 65Z" stroke="#5EA3D1" stroke-opacity="0.58" stroke-width="4"/>
<path d="M111 57.5C111 86.4542 87.312 110 58 110C28.688 110 5 86.4542 5 57.5C5 28.5458 28.688 5 58 5C87.312 5 111 28.5458 111 57.5Z" stroke="#5EA2D0" stroke-opacity="0.15" stroke-width="10"/>
<path d="M57.2727 90.6364C53.6061 90.6364 50.3485 90.0076 47.5 88.75C44.6667 87.4773 42.4394 85.7273 40.8182 83.5C39.197 81.2727 38.3788 78.7121 38.3636 75.8182H51.0909C51.1061 76.7121 51.3788 77.5152 51.9091 78.2273C52.4545 78.9242 53.197 79.4697 54.1364 79.8636C55.0758 80.2576 56.1515 80.4545 57.3636 80.4545C58.5303 80.4545 59.5606 80.25 60.4545 79.8409C61.3485 79.4167 62.0455 78.8333 62.5455 78.0909C63.0455 77.3485 63.2879 76.5 63.2727 75.5455C63.2879 74.6061 63 73.7727 62.4091 73.0455C61.8333 72.3182 61.0227 71.75 59.9773 71.3409C58.9318 70.9318 57.7273 70.7273 56.3636 70.7273H51.6364V62H56.3636C57.6212 62 58.7273 61.7955 59.6818 61.3864C60.6515 60.9773 61.4015 60.4091 61.9318 59.6818C62.4773 58.9545 62.7424 58.1212 62.7273 57.1818C62.7424 56.2727 62.5227 55.4697 62.0682 54.7727C61.6136 54.0758 60.9773 53.5303 60.1591 53.1364C59.3561 52.7424 58.4242 52.5455 57.3636 52.5455C56.2121 52.5455 55.1818 52.75 54.2727 53.1591C53.3788 53.5682 52.6742 54.1364 52.1591 54.8636C51.6439 55.5909 51.3788 56.4242 51.3636 57.3636H39.2727C39.2879 54.5152 40.0682 52 41.6136 49.8182C43.1742 47.6364 45.3106 45.9242 48.0227 44.6818C50.7348 43.4394 53.8485 42.8182 57.3636 42.8182C60.803 42.8182 63.8409 43.4015 66.4773 44.5682C69.1288 45.7348 71.197 47.3409 72.6818 49.3864C74.1818 51.4167 74.9242 53.7424 74.9091 56.3636C74.9394 58.9697 74.0455 61.1061 72.2273 62.7727C70.4242 64.4394 68.1364 65.4242 65.3636 65.7273V66.0909C69.1212 66.5 71.947 67.6515 73.8409 69.5455C75.7349 71.4242 76.6667 73.7879 76.6364 76.6364C76.6515 79.3636 75.8333 81.7803 74.1818 83.8864C72.5455 85.9924 70.2652 87.6439 67.3409 88.8409C64.4318 90.0379 61.0758 90.6364 57.2727 90.6364Z" fill="#005B96"/>
</svg>
