<svg width="116" height="115" viewBox="0 0 116 115" fill="none" xmlns="http://www.w3.org/2000/svg">
<path d="M99 65C99 91.491 77.3046 113 50.5 113C23.6954 113 2 91.491 2 65C2 38.509 23.6954 17 50.5 17C77.3046 17 99 38.509 99 65Z" stroke="#5EA3D1" stroke-opacity="0.58" stroke-width="4"/>
<path d="M111 57.5C111 86.4542 87.312 110 58 110C28.688 110 5 86.4542 5 57.5C5 28.5458 28.688 5 58 5C87.312 5 111 28.5458 111 57.5Z" stroke="#5EA2D0" stroke-opacity="0.15" stroke-width="10"/>
<path d="M61.9091 43.4545V90H49.2727V55.0909H49L38.8182 61.1818V50.4545L50.2727 43.4545H61.9091Z" fill="#005B96"/>
</svg>
