<svg width="116" height="115" viewBox="0 0 116 115" fill="none" xmlns="http://www.w3.org/2000/svg">
<path d="M99 65C99 91.491 77.3046 113 50.5 113C23.6954 113 2 91.491 2 65C2 38.509 23.6954 17 50.5 17C77.3046 17 99 38.509 99 65Z" stroke="#5EA3D1" stroke-opacity="0.58" stroke-width="4"/>
<path d="M111 57.5C111 86.4542 87.312 110 58 110C28.688 110 5 86.4542 5 57.5C5 28.5458 28.688 5 58 5C87.312 5 111 28.5458 111 57.5Z" stroke="#5EA2D0" stroke-opacity="0.15" stroke-width="10"/>
<path d="M39.0909 90V80.9091L56.4545 66.5455C57.6061 65.5909 58.5909 64.697 59.4091 63.8636C60.2424 63.0152 60.8788 62.1439 61.3182 61.25C61.7727 60.3561 62 59.3636 62 58.2727C62 57.0758 61.7424 56.053 61.2273 55.2045C60.7273 54.3561 60.0303 53.7045 59.1364 53.25C58.2424 52.7803 57.2121 52.5455 56.0455 52.5455C54.8788 52.5455 53.8485 52.7803 52.9545 53.25C52.0758 53.7197 51.3939 54.4091 50.9091 55.3182C50.4242 56.2273 50.1818 57.3333 50.1818 58.6364H38.1818C38.1818 55.3636 38.9167 52.5455 40.3864 50.1818C41.8561 47.8182 43.9318 46 46.6136 44.7273C49.2955 43.4545 52.4394 42.8182 56.0455 42.8182C59.7727 42.8182 63 43.4167 65.7273 44.6136C68.4697 45.7955 70.5833 47.4621 72.0682 49.6136C73.5682 51.7652 74.3182 54.2879 74.3182 57.1818C74.3182 58.9697 73.947 60.75 73.2045 62.5227C72.4621 64.2803 71.1288 66.2273 69.2045 68.3636C67.2803 70.5 64.5455 73.0455 61 76L56.6364 79.6364V79.9091H74.8182V90H39.0909Z" fill="#005B96"/>
</svg>
