<svg width="210" height="58" viewBox="0 0 210 58" fill="none" xmlns="http://www.w3.org/2000/svg">
<circle cx="29" cy="29" r="29" fill="url(#paint0_linear_301_12)" fill-opacity="0.69"/>
<path d="M38.4602 22.1193C38.1307 21.0852 37.6875 20.1591 37.1307 19.3409C36.5852 18.5114 35.9318 17.8068 35.1705 17.2273C34.4091 16.6364 33.5398 16.1875 32.5625 15.8807C31.5966 15.5739 30.5341 15.4205 29.375 15.4205C27.4091 15.4205 25.6364 15.9261 24.0568 16.9375C22.4773 17.9489 21.2273 19.4318 20.3068 21.3864C19.3977 23.3295 18.9432 25.7102 18.9432 28.5284C18.9432 31.358 19.4034 33.75 20.3239 35.7045C21.2443 37.6591 22.5057 39.142 24.108 40.1534C25.7102 41.1648 27.5341 41.6705 29.5795 41.6705C31.4773 41.6705 33.1307 41.2841 34.5398 40.5114C35.9602 39.7386 37.0568 38.6477 37.8295 37.2386C38.6136 35.8182 39.0057 34.1477 39.0057 32.2273L40.3693 32.483H30.3807V28.1364H44.1023V32.108C44.1023 35.0398 43.4773 37.5852 42.2273 39.7443C40.9886 41.892 39.2727 43.5511 37.0795 44.7216C34.8977 45.892 32.3977 46.4773 29.5795 46.4773C26.4205 46.4773 23.6477 45.75 21.2614 44.2955C18.8864 42.8409 17.0341 40.7784 15.7045 38.108C14.375 35.4261 13.7102 32.2443 13.7102 28.5625C13.7102 25.7784 14.0966 23.2784 14.8693 21.0625C15.642 18.8466 16.7273 16.9659 18.125 15.4205C19.5341 13.8636 21.1875 12.6761 23.0852 11.858C24.9943 11.0284 27.0795 10.6136 29.3409 10.6136C31.2273 10.6136 32.983 10.892 34.608 11.4489C36.2443 12.0057 37.6989 12.7955 38.9716 13.8182C40.2557 14.8409 41.3182 16.0568 42.1591 17.4659C43 18.8636 43.5682 20.4148 43.8636 22.1193H38.4602ZM48.6662 46V32.9091H51.1293V34.9886H51.2656C51.5043 34.2841 51.9247 33.7301 52.527 33.3267C53.1349 32.9176 53.8224 32.7131 54.5895 32.7131C54.7486 32.7131 54.9361 32.7187 55.152 32.7301C55.3736 32.7415 55.5469 32.7557 55.6719 32.7727V35.2102C55.5696 35.1818 55.3878 35.1506 55.1264 35.1165C54.8651 35.0767 54.6037 35.0568 54.3423 35.0568C53.7401 35.0568 53.2031 35.1847 52.7315 35.4403C52.2656 35.6903 51.8963 36.0398 51.6236 36.4886C51.3509 36.9318 51.2145 37.4375 51.2145 38.0057V46H48.6662ZM61.5696 46.2898C60.7401 46.2898 59.9901 46.1364 59.3196 45.8295C58.6491 45.517 58.1179 45.0653 57.7259 44.4744C57.3395 43.8835 57.1463 43.1591 57.1463 42.3011C57.1463 41.5625 57.2884 40.9545 57.5724 40.4773C57.8565 40 58.2401 39.6222 58.723 39.3438C59.206 39.0653 59.7457 38.8551 60.3423 38.7131C60.9389 38.571 61.5469 38.4631 62.1662 38.3892C62.9503 38.2983 63.5866 38.2244 64.0753 38.1676C64.5639 38.1051 64.919 38.0057 65.1406 37.8693C65.3622 37.733 65.473 37.5114 65.473 37.2045V37.1449C65.473 36.4006 65.2628 35.8239 64.8423 35.4148C64.4276 35.0057 63.8082 34.8011 62.9844 34.8011C62.1264 34.8011 61.4503 34.9915 60.956 35.3722C60.4673 35.7472 60.1293 36.1648 59.9418 36.625L57.5469 36.0795C57.831 35.2841 58.2457 34.642 58.7912 34.1534C59.3423 33.6591 59.9759 33.3011 60.6918 33.0795C61.4077 32.8523 62.1605 32.7386 62.9503 32.7386C63.473 32.7386 64.027 32.8011 64.6122 32.9261C65.2031 33.0455 65.7543 33.267 66.2656 33.5909C66.7827 33.9148 67.206 34.3778 67.5355 34.9801C67.8651 35.5767 68.0298 36.3523 68.0298 37.3068V46H65.5412V44.2102H65.4389C65.2741 44.5398 65.027 44.8636 64.6974 45.1818C64.3679 45.5 63.9446 45.7642 63.4276 45.9744C62.9105 46.1847 62.2912 46.2898 61.5696 46.2898ZM62.1236 44.2443C62.8281 44.2443 63.4304 44.1051 63.9304 43.8267C64.4361 43.5483 64.8196 43.1847 65.081 42.7358C65.348 42.2812 65.4815 41.7955 65.4815 41.2784V39.5909C65.3906 39.6818 65.2145 39.767 64.9531 39.8466C64.6974 39.9205 64.4048 39.9858 64.0753 40.0426C63.7457 40.0937 63.4247 40.142 63.1122 40.1875C62.7997 40.2273 62.5384 40.2614 62.3281 40.2898C61.8338 40.3523 61.3821 40.4574 60.973 40.6051C60.5696 40.7528 60.2457 40.9659 60.0014 41.2443C59.7628 41.517 59.6435 41.8807 59.6435 42.3352C59.6435 42.9659 59.8764 43.4432 60.3423 43.767C60.8082 44.0852 61.402 44.2443 62.1236 44.2443ZM71.424 46V32.9091H73.87V35.0398H74.032C74.3047 34.3182 74.7507 33.7557 75.37 33.3523C75.9893 32.9432 76.7308 32.7386 77.5945 32.7386C78.4695 32.7386 79.2024 32.9432 79.7933 33.3523C80.3899 33.7614 80.8303 34.3239 81.1143 35.0398H81.2507C81.5632 34.3409 82.0604 33.7841 82.7422 33.3693C83.424 32.9489 84.2365 32.7386 85.1797 32.7386C86.3672 32.7386 87.3359 33.1108 88.0859 33.8551C88.8416 34.5994 89.2195 35.7216 89.2195 37.2216V46H86.6712V37.4602C86.6712 36.5739 86.4297 35.9318 85.9467 35.5341C85.4638 35.1364 84.8871 34.9375 84.2166 34.9375C83.3871 34.9375 82.7422 35.1932 82.282 35.7045C81.8217 36.2102 81.5916 36.8608 81.5916 37.6562V46H79.0518V37.2983C79.0518 36.5881 78.8303 36.017 78.3871 35.5852C77.9439 35.1534 77.3672 34.9375 76.657 34.9375C76.174 34.9375 75.728 35.0653 75.3189 35.321C74.9155 35.571 74.5888 35.9205 74.3388 36.3693C74.0945 36.8182 73.9723 37.3381 73.9723 37.929V46H71.424ZM99.1911 46V28.5455H110.134V30.8125H101.825V36.1307H109.563V38.3892H101.825V43.733H110.237V46H99.1911ZM115.459 32.9091L118.348 38.0057L121.263 32.9091H124.05L119.967 39.4545L124.084 46H121.297L118.348 41.108L115.408 46H112.612L116.686 39.4545L112.663 32.9091H115.459ZM131.665 46.2642C130.398 46.2642 129.307 45.9773 128.392 45.4034C127.483 44.8239 126.784 44.0256 126.295 43.0085C125.807 41.9915 125.562 40.8267 125.562 39.5142C125.562 38.1847 125.812 37.0114 126.312 35.9943C126.812 34.9716 127.517 34.1733 128.426 33.5994C129.335 33.0256 130.406 32.7386 131.639 32.7386C132.634 32.7386 133.52 32.9233 134.298 33.2926C135.077 33.6562 135.705 34.1676 136.182 34.8267C136.665 35.4858 136.952 36.2557 137.043 37.1364H134.562C134.426 36.5227 134.114 35.9943 133.625 35.5511C133.142 35.108 132.494 34.8864 131.682 34.8864C130.972 34.8864 130.349 35.0739 129.815 35.4489C129.287 35.8182 128.875 36.3466 128.58 37.0341C128.284 37.7159 128.136 38.5227 128.136 39.4545C128.136 40.4091 128.281 41.233 128.571 41.9261C128.861 42.6193 129.27 43.1562 129.798 43.5369C130.332 43.9176 130.96 44.108 131.682 44.108C132.165 44.108 132.602 44.0199 132.994 43.8438C133.392 43.6619 133.724 43.4034 133.991 43.0682C134.264 42.733 134.455 42.3295 134.562 41.858H137.043C136.952 42.7045 136.676 43.4602 136.216 44.125C135.756 44.7898 135.139 45.3125 134.366 45.6932C133.599 46.0739 132.699 46.2642 131.665 46.2642ZM142.316 38.2273V46H139.768V28.5455H142.282V35.0398H142.444C142.751 34.3352 143.219 33.7756 143.85 33.3608C144.481 32.946 145.305 32.7386 146.322 32.7386C147.219 32.7386 148.004 32.9233 148.674 33.2926C149.35 33.6619 149.873 34.2131 150.242 34.946C150.617 35.6733 150.805 36.5824 150.805 37.6733V46H148.256V37.9801C148.256 37.0199 148.009 36.2756 147.515 35.7472C147.021 35.2131 146.333 34.946 145.452 34.946C144.85 34.946 144.31 35.0739 143.833 35.3295C143.362 35.5852 142.989 35.9602 142.717 36.4545C142.45 36.9432 142.316 37.5341 142.316 38.2273ZM158.015 46.2898C157.185 46.2898 156.435 46.1364 155.765 45.8295C155.094 45.517 154.563 45.0653 154.171 44.4744C153.785 43.8835 153.592 43.1591 153.592 42.3011C153.592 41.5625 153.734 40.9545 154.018 40.4773C154.302 40 154.685 39.6222 155.168 39.3438C155.651 39.0653 156.191 38.8551 156.788 38.7131C157.384 38.571 157.992 38.4631 158.612 38.3892C159.396 38.2983 160.032 38.2244 160.521 38.1676C161.009 38.1051 161.364 38.0057 161.586 37.8693C161.808 37.733 161.918 37.5114 161.918 37.2045V37.1449C161.918 36.4006 161.708 35.8239 161.288 35.4148C160.873 35.0057 160.254 34.8011 159.43 34.8011C158.572 34.8011 157.896 34.9915 157.401 35.3722C156.913 35.7472 156.575 36.1648 156.387 36.625L153.992 36.0795C154.276 35.2841 154.691 34.642 155.237 34.1534C155.788 33.6591 156.421 33.3011 157.137 33.0795C157.853 32.8523 158.606 32.7386 159.396 32.7386C159.918 32.7386 160.472 32.8011 161.058 32.9261C161.648 33.0455 162.2 33.267 162.711 33.5909C163.228 33.9148 163.651 34.3778 163.981 34.9801C164.31 35.5767 164.475 36.3523 164.475 37.3068V46H161.987V44.2102H161.884C161.719 44.5398 161.472 44.8636 161.143 45.1818C160.813 45.5 160.39 45.7642 159.873 45.9744C159.356 46.1847 158.737 46.2898 158.015 46.2898ZM158.569 44.2443C159.273 44.2443 159.876 44.1051 160.376 43.8267C160.881 43.5483 161.265 43.1847 161.526 42.7358C161.793 42.2812 161.927 41.7955 161.927 41.2784V39.5909C161.836 39.6818 161.66 39.767 161.398 39.8466C161.143 39.9205 160.85 39.9858 160.521 40.0426C160.191 40.0937 159.87 40.142 159.558 40.1875C159.245 40.2273 158.984 40.2614 158.773 40.2898C158.279 40.3523 157.827 40.4574 157.418 40.6051C157.015 40.7528 156.691 40.9659 156.447 41.2443C156.208 41.517 156.089 41.8807 156.089 42.3352C156.089 42.9659 156.322 43.4432 156.788 43.767C157.254 44.0852 157.847 44.2443 158.569 44.2443ZM170.418 38.2273V46H167.869V32.9091H170.315V35.0398H170.477C170.778 34.3466 171.25 33.7898 171.892 33.3693C172.54 32.9489 173.355 32.7386 174.338 32.7386C175.23 32.7386 176.011 32.9261 176.682 33.3011C177.352 33.6705 177.872 34.2216 178.241 34.9545C178.611 35.6875 178.795 36.5937 178.795 37.6733V46H176.247V37.9801C176.247 37.0312 176 36.2898 175.506 35.7557C175.011 35.2159 174.332 34.946 173.469 34.946C172.878 34.946 172.352 35.0739 171.892 35.3295C171.438 35.5852 171.077 35.9602 170.81 36.4545C170.548 36.9432 170.418 37.5341 170.418 38.2273ZM187.702 51.1818C186.662 51.1818 185.767 51.0455 185.017 50.7727C184.273 50.5 183.665 50.1392 183.193 49.6903C182.722 49.2415 182.369 48.75 182.136 48.2159L184.327 47.3125C184.48 47.5625 184.685 47.8267 184.94 48.1051C185.202 48.3892 185.554 48.6307 185.997 48.8295C186.446 49.0284 187.023 49.1278 187.727 49.1278C188.693 49.1278 189.491 48.892 190.122 48.4205C190.753 47.9545 191.068 47.2102 191.068 46.1875V43.6136H190.906C190.753 43.892 190.531 44.2017 190.241 44.5426C189.957 44.8835 189.565 45.179 189.065 45.429C188.565 45.679 187.915 45.804 187.114 45.804C186.08 45.804 185.148 45.5625 184.318 45.0795C183.494 44.5909 182.841 43.8722 182.358 42.9233C181.881 41.9687 181.642 40.7955 181.642 39.4034C181.642 38.0114 181.878 36.8182 182.349 35.8239C182.827 34.8295 183.48 34.0682 184.31 33.5398C185.139 33.0057 186.08 32.7386 187.131 32.7386C187.943 32.7386 188.599 32.875 189.099 33.1477C189.599 33.4148 189.989 33.7273 190.267 34.0852C190.551 34.4432 190.77 34.7585 190.923 35.0312H191.111V32.9091H193.608V46.2898C193.608 47.4148 193.347 48.3381 192.824 49.0597C192.301 49.7813 191.594 50.3153 190.702 50.6619C189.815 51.0085 188.815 51.1818 187.702 51.1818ZM187.676 43.6903C188.409 43.6903 189.028 43.5199 189.534 43.179C190.045 42.8324 190.432 42.3381 190.693 41.696C190.96 41.0483 191.094 40.2727 191.094 39.3693C191.094 38.4886 190.963 37.7131 190.702 37.0426C190.44 36.3722 190.057 35.8494 189.551 35.4744C189.045 35.0937 188.42 34.9034 187.676 34.9034C186.909 34.9034 186.27 35.1023 185.759 35.5C185.247 35.892 184.861 36.4261 184.599 37.1023C184.344 37.7784 184.216 38.5341 184.216 39.3693C184.216 40.2273 184.347 40.9801 184.608 41.6278C184.869 42.2756 185.256 42.7812 185.767 43.1449C186.284 43.5085 186.92 43.6903 187.676 43.6903ZM202.668 46.2642C201.378 46.2642 200.267 45.9886 199.335 45.4375C198.409 44.8807 197.693 44.0994 197.188 43.0938C196.688 42.0824 196.438 40.8977 196.438 39.5398C196.438 38.1989 196.688 37.017 197.188 35.9943C197.693 34.9716 198.398 34.1733 199.301 33.5994C200.21 33.0256 201.273 32.7386 202.489 32.7386C203.227 32.7386 203.943 32.8608 204.636 33.1051C205.33 33.3494 205.952 33.733 206.503 34.2557C207.054 34.7784 207.489 35.4574 207.807 36.2926C208.125 37.1222 208.284 38.1307 208.284 39.3182V40.2216H197.878V38.3125H205.787C205.787 37.642 205.651 37.0483 205.378 36.5312C205.105 36.0085 204.722 35.5966 204.227 35.2955C203.739 34.9943 203.165 34.8438 202.506 34.8438C201.79 34.8438 201.165 35.0199 200.631 35.3722C200.102 35.7187 199.693 36.1733 199.403 36.7358C199.119 37.2926 198.977 37.8977 198.977 38.5511V40.0426C198.977 40.9176 199.131 41.6619 199.438 42.2756C199.75 42.8892 200.185 43.358 200.741 43.6818C201.298 44 201.949 44.1591 202.693 44.1591C203.176 44.1591 203.616 44.0909 204.014 43.9545C204.412 43.8125 204.756 43.6023 205.045 43.3239C205.335 43.0455 205.557 42.7017 205.71 42.2926L208.122 42.7273C207.929 43.4375 207.582 44.0597 207.082 44.5938C206.588 45.1222 205.966 45.5341 205.216 45.8295C204.472 46.1193 203.622 46.2642 202.668 46.2642Z" fill="#141414"/>
<defs>
<linearGradient id="paint0_linear_301_12" x1="29" y1="0" x2="29" y2="58" gradientUnits="userSpaceOnUse">
<stop stop-color="#5EA3D1"/>
<stop offset="1" stop-color="#5EBCD1"/>
</linearGradient>
</defs>
</svg>
